<?xml version="1.0" encoding="utf-8"?><!-- Generator: Adobe Illustrator 27.6.1, SVG Export Plug-In . SVG Version: 6.00 Build 0)  --><svg xmlns="http://www.w3.org/2000/svg" xmlns:xlink="http://www.w3.org/1999/xlink" version="1.1" id="Layer_1" x="0px" y="0px" viewBox="0 0 1080 432.96" style="enable-background:new 0 0 1080 432.96;" xml:space="preserve">
<style type="text/css">
	.st0{fill:#005C7B;}
	.st1{fill:#06bac5;}
	.st2{fill:#ffffff;}
</style>
<g>
	<g>
		<g>
			<g>
				<g>
					<g>
						<path class="st2" d="M402.59,161.65c2.81,3.26,4.29,5.92,4.29,8.88c0,4.44-3.55,7.99-8.29,7.99c-3.11,0-6.07-1.93-7.99-4        c-4.14-4.29-7.69-6.66-14.21-6.66c-9.03,0-14.21,4.59-14.21,11.1c0,4.89,2.67,9.32,11.54,12.73l5.77,2.22        c23.09,8.73,32.41,17.17,32.41,31.37c0,20.42-20.28,30.63-37.44,30.63c-11.69,0-23.97-4.73-31.23-13.91        c-1.48-1.78-4.14-5.18-4.14-9.62c0-4.14,2.67-8.44,8.14-8.44c4.44,0,7.4,2.81,9.47,5.62c5.18,6.51,12.13,8.58,17.76,8.58        c7.25,0,17.17-2.81,17.17-12.88c0-7.7-5.18-11.25-16.57-15.69l-6.22-2.37c-15.24-5.92-26.49-13.32-26.49-28.41        c0-17.61,14.8-28.56,33.3-28.56C388.68,150.25,396.67,155.14,402.59,161.65z"/>
						<path class="st2" d="M468.46,245.27c0,6.81-6.66,10.36-16.72,10.36c-10.06,0-20.27-3.26-20.27-23.83v-38.63h-4.29        c-4.74,0-7.84-3.11-7.84-7.55c0-4.59,3.11-7.7,7.84-7.7h4.29v-10.06c0-5.33,4.44-9.77,9.77-9.77s9.62,4.44,9.62,9.77v10.06        h9.77c4.88,0,7.84,3.11,7.84,7.7c0,4.44-2.96,7.55-7.84,7.55h-9.77v39.22c0,4.29,1.48,6.51,4.74,6.51c1.63,0,4-0.59,5.62-0.59        C465.64,238.01,468.46,240.68,468.46,245.27z"/>
						<path class="st2" d="M481.78,220.55V187.1c0-5.33,4.44-9.62,9.77-9.62c5.18,0,9.62,4.29,9.62,9.62v33.45        c0,13.32,6.96,18.79,15.69,18.79c13.32,0,17.76-12.43,18.35-16.57V187.1c0-5.33,4.44-9.62,9.62-9.62        c5.33,0,9.77,4.29,9.77,9.62v58.76c0,5.33-4.44,9.77-9.77,9.77c-5.18,0-9.62-4.44-9.62-9.77v-7.4        c-0.59,5.33-9.32,17.46-25.31,17.46C494.95,255.92,481.78,246.15,481.78,220.55z"/>
						<path class="st2" d="M646.81,158.84v87.32c0,5.33-4.74,9.62-9.92,9.62c-5.33,0-9.77-4.29-9.77-9.62v-2.81        c-1.18,4.59-9.03,12.58-21.91,12.58c-16.28,0-35.81-12.58-35.81-39.51c0-26.34,19.68-39.37,35.81-39.37        c10.51,0,18.94,5.62,21.91,12.58v-2.52c0-0.59,0-1.04,0.15-1.63v-26.64c0-5.18,4.44-9.62,9.62-9.62        C642.22,149.22,646.81,153.66,646.81,158.84z M628.01,216.41c0-16.73-10.95-22.79-19.24-22.79c-9.77,0-19.98,7.7-19.98,22.79        c0,15.24,10.21,22.79,19.98,22.79C617.06,239.2,628.01,233.13,628.01,216.41z"/>
						<path class="st2" d="M664.58,220.55V187.1c0-5.33,4.44-9.62,9.77-9.62c5.18,0,9.62,4.29,9.62,9.62v33.45        c0,13.32,6.96,18.79,15.69,18.79c13.32,0,17.76-12.43,18.35-16.57V187.1c0-5.33,4.44-9.62,9.62-9.62        c5.33,0,9.77,4.29,9.77,9.62v58.76c0,5.33-4.44,9.77-9.77,9.77c-5.18,0-9.62-4.44-9.62-9.77v-7.4        c-0.59,5.33-9.32,17.46-25.31,17.46C677.75,255.92,664.58,246.15,664.58,220.55z"/>
						<path class="st2" d="M820.27,238.46c0,4.73-3.55,7.1-5.48,8.88c-6.22,5.48-13.47,8.29-23.09,8.29        c-17.91,0-39.52-12.87-39.52-39.22c0-26.49,21.61-39.37,39.52-39.37c9.62,0,16.87,2.66,23.09,8.14        c1.92,1.92,5.48,4.29,5.48,9.03c0,4.59-3.85,7.4-7.84,7.4c-3.55,0-6.36-2.07-7.55-3.11c-3.4-3.26-8.44-4.59-12.43-4.59        c-11.69,0-21.01,8.14-21.01,22.5c0,14.21,9.32,22.34,21.01,22.34c4,0,9.03-1.33,12.43-4.59c1.18-1.04,4-3.11,7.55-3.11        C816.42,231.06,820.27,233.87,820.27,238.46z"/>
						<path class="st2" d="M904.34,247.19c0,4.44-3.7,8.44-8.58,8.44c-2.37,0-4.59-1.04-5.92-2.66l-26.49-29.45l-8.88,8.29v14.21        c0,5.33-4.44,9.62-9.62,9.62c-5.33,0-9.77-4.29-9.77-9.62v-87.17c0-5.18,4.44-9.62,9.77-9.62c5.18,0,9.62,4.44,9.62,9.62        v50.17l29.3-28.71c1.63-1.63,4-2.81,6.51-2.81c4.88,0,8.73,4.14,8.73,8.73c0,2.52-0.89,4.59-2.37,6.22l-21.31,19.83        l26.49,29.01C903.16,242.6,904.34,244.68,904.34,247.19z"/>
						<path class="st2" d="M989,186.22c0,1.78-0.59,3.26-1.18,4.44l-38.33,86.28c-2.07,4.74-5.62,6.81-9.33,6.81        c-5.03,0-8.58-4-8.58-8.73c0-1.78,0.59-3.26,1.04-4.44l8.44-19.24l-27.53-60.68c-0.45-1.18-1.04-2.66-1.04-4.44        c0-4.73,3.85-8.73,8.88-8.73c3.7,0,7.25,2.07,9.32,6.81l19.83,45.88l20.27-45.88c2.07-4.73,5.48-6.81,9.18-6.81        C985.15,177.49,989,181.48,989,186.22z"/>
					</g>
				</g>
			</g>
		</g>
	</g>
	<g>
		<circle class="st2" cx="196.08" cy="216.48" r="105.08"/>
		<g>
			<path class="st1" d="M221,229.66c2.6,0,4.71-2.11,4.71-4.7c0-2.6-2.11-4.71-4.71-4.71h-82.45c-2.6,0-4.71,2.11-4.71,4.71     c0,2.6,2.11,4.7,4.71,4.7H221z"/>
			<path class="st1" d="M235.37,240.91c0-2.6-2.11-4.7-4.7-4.7H125c-2.6,0-4.7,2.11-4.7,4.7c0,2.6,2.11,4.7,4.7,4.7h105.66     C233.26,245.62,235.37,243.51,235.37,240.91z"/>
			<path class="st1" d="M138.56,252.16c-2.6,0-4.71,2.11-4.71,4.7s2.11,4.7,4.71,4.7h83.41c2.6,0,4.7-2.11,4.7-4.7     s-2.11-4.7-4.7-4.7H138.56z"/>
			<path class="st1" d="M259.04,240.41c-0.03-19.16-13.44-36.35-37.06-47.39c-0.24-0.11-0.43-0.2-0.54-0.25     c-5.34-2.68-31.46-17.06-21.61-36.72c1.98-3.95,6.19-6.82,10.71-7.31c6.83-0.73,12.45,1.86,15.84,7.28     c1.27,2.04,2.18,4.48,3.06,6.83c2.49,6.72,7.53,9.22,12.48,11.21c0.8,0.32,1.62,0.62,2.47,0.9c-0.38,0.19-0.77,0.38-1.18,0.57     c-2.03,0.89-4.37,1.53-7.59,2.07c-1.46,0.24-2.94,0.44-4.71,0.65c-2.58,0.32-4.41,2.66-4.1,5.24c0.32,2.58,2.66,4.42,5.24,4.1     c1.89-0.23,3.49-0.44,5.11-0.71c2.5-0.42,6.24-1.15,9.84-2.74c4.23-1.86,7.28-4.26,9.07-7.12c1.25-2,1.52-4.23,0.72-6.12     c-0.74-1.77-2.32-3.03-4.33-3.47c-2.57-0.56-4.94-1.27-7.04-2.11c-4.36-1.75-6.09-2.88-7.16-5.75c-0.99-2.66-2.11-5.68-3.89-8.53     c-5.32-8.53-14.36-12.77-24.82-11.66c-7.74,0.83-14.69,5.6-18.12,12.44c-5.14,10.26-4.19,20.87,2.75,30.69     c6.53,9.24,16.64,15.37,22.47,18.36h-86.02c-2.6,0-4.7,2.11-4.7,4.7c0,2.6,2.11,4.7,4.7,4.7h88.84     c16.02,0,29.16,12.55,30.12,28.33c0.01,0.21,0.02,0.41,0.03,0.62c0.01,0.3,0.02,0.6,0.02,0.9c0,0.36,0,0.73-0.01,1.1     c-0.02,0.76-0.06,1.52-0.13,2.27l-0.05,0.41c-0.03,0.25-0.06,0.51-0.1,0.76c-0.81,5.29-3.91,15.03-15.48,22.31     c-4.28,2.33-9.19,3.66-14.4,3.66h-88.84c-2.6,0-4.7,2.11-4.7,4.71c0,2.6,2.11,4.7,4.7,4.7h88.84c6.62,0,12.87-1.64,18.36-4.53     c0.23-0.1,0.46-0.21,0.68-0.34c0.1-0.06,0.2-0.13,0.3-0.19c10.53-5.92,18.09-16.51,19.85-28.95c0.01-0.06,0.02-0.12,0.03-0.17     c0.01-0.04,0.01-0.07,0.02-0.11l0.13-1.07c0.01-0.08,0.02-0.15,0.03-0.23c0.13-1.13,0.16-1.98,0.17-2.32     c0.02-0.46,0.02-0.91,0.02-1.37c0-0.1,0.01-0.2,0.01-0.3C259.04,240.45,259.04,240.43,259.04,240.41z"/>
		</g>
	</g>
</g>
</svg>