<?xml version="1.0" encoding="utf-8"?>
<!-- Generator: Adobe Illustrator 27.6.1, SVG Export Plug-In . SVG Version: 6.00 Build 0)  -->
<svg version="1.1" id="Layer_1" xmlns="http://www.w3.org/2000/svg" xmlns:xlink="http://www.w3.org/1999/xlink" x="0px" y="0px"
	 viewBox="0 0 1080 865.93" style="enable-background:new 0 0 1080 865.93;" xml:space="preserve">
<style type="text/css">
	.st0{fill:#005C7B;}
	.st1{fill:#FFFFFF;}
	.st2{fill:#06BAC5;}
</style>
<g>
	<g>
		<g>
			<g>
				<g>
					<g>
						<path class="st2" d="M233.29,619.02c3.3,3.82,5.03,6.94,5.03,10.42c0,5.21-4.16,9.38-9.72,9.38c-3.65,0-7.12-2.26-9.38-4.69
							c-4.86-5.03-9.03-7.81-16.67-7.81c-10.59,0-16.67,5.38-16.67,13.02c0,5.73,3.12,10.94,13.54,14.93l6.77,2.61
							c27.08,10.24,38.02,20.14,38.02,36.8c0,23.96-23.79,35.94-43.93,35.94c-13.71,0-28.13-5.56-36.63-16.32
							c-1.74-2.09-4.86-6.08-4.86-11.28c0-4.86,3.12-9.9,9.55-9.9c5.21,0,8.68,3.3,11.11,6.6c6.07,7.64,14.24,10.07,20.83,10.07
							c8.51,0,20.14-3.3,20.14-15.11c0-9.03-6.07-13.19-19.45-18.4l-7.29-2.78c-17.88-6.95-31.08-15.63-31.08-33.34
							c0-20.66,17.36-33.51,39.06-33.51C216.97,605.65,226.35,611.38,233.29,619.02z"/>
						<path class="st2" d="M310.55,717.12c0,7.98-7.81,12.15-19.62,12.15c-11.81,0-23.79-3.82-23.79-27.95V656h-5.03
							c-5.56,0-9.2-3.65-9.2-8.86c0-5.38,3.65-9.03,9.2-9.03h5.03v-11.8c0-6.25,5.21-11.46,11.46-11.46
							c6.25,0,11.29,5.21,11.29,11.46v11.8h11.46c5.73,0,9.2,3.65,9.2,9.03c0,5.21-3.47,8.86-9.2,8.86h-11.46v46.01
							c0,5.03,1.74,7.64,5.56,7.64c1.91,0,4.69-0.7,6.6-0.7C307.25,708.61,310.55,711.73,310.55,717.12z"/>
						<path class="st2" d="M326.18,688.12v-39.24c0-6.25,5.21-11.28,11.46-11.28c6.07,0,11.28,5.03,11.28,11.28v39.24
							c0,15.63,8.16,22.05,18.4,22.05c15.63,0,20.83-14.58,21.53-19.45v-41.84c0-6.25,5.21-11.28,11.28-11.28
							c6.25,0,11.46,5.03,11.46,11.28v68.93c0,6.25-5.21,11.46-11.46,11.46c-6.07,0-11.28-5.21-11.28-11.46v-8.68
							c-0.7,6.25-10.94,20.49-29.69,20.49C341.64,729.62,326.18,718.16,326.18,688.12z"/>
						<path class="st2" d="M519.77,615.72v102.44c0,6.25-5.56,11.28-11.63,11.28c-6.25,0-11.46-5.03-11.46-11.28v-3.3
							c-1.39,5.38-10.59,14.76-25.7,14.76c-19.1,0-42.02-14.76-42.02-46.36c0-30.9,23.09-46.18,42.02-46.18
							c12.33,0,22.22,6.6,25.7,14.76v-2.95c0-0.7,0-1.21,0.17-1.91v-31.25c0-6.07,5.21-11.28,11.28-11.28
							C514.39,604.43,519.77,609.64,519.77,615.72z M497.72,683.26c0-19.62-12.85-26.74-22.57-26.74
							c-11.46,0-23.44,9.03-23.44,26.74c0,17.89,11.98,26.74,23.44,26.74C484.87,710,497.72,702.88,497.72,683.26z"/>
						<path class="st2" d="M540.6,688.12v-39.24c0-6.25,5.21-11.28,11.46-11.28c6.07,0,11.28,5.03,11.28,11.28v39.24
							c0,15.63,8.16,22.05,18.4,22.05c15.63,0,20.83-14.58,21.53-19.45v-41.84c0-6.25,5.21-11.28,11.28-11.28
							c6.25,0,11.46,5.03,11.46,11.28v68.93c0,6.25-5.21,11.46-11.46,11.46c-6.07,0-11.28-5.21-11.28-11.46v-8.68
							c-0.7,6.25-10.94,20.49-29.69,20.49C556.06,729.62,540.6,718.16,540.6,688.12z"/>
						<path class="st2" d="M723.26,709.13c0,5.56-4.17,8.33-6.42,10.42c-7.29,6.42-15.8,9.73-27.08,9.73
							c-21.01,0-46.36-15.1-46.36-46.01c0-31.08,25.35-46.18,46.36-46.18c11.28,0,19.79,3.13,27.08,9.55
							c2.26,2.26,6.42,5.03,6.42,10.59c0,5.38-4.51,8.68-9.2,8.68c-4.17,0-7.47-2.43-8.86-3.64c-3.99-3.82-9.89-5.38-14.58-5.38
							c-13.72,0-24.66,9.55-24.66,26.39c0,16.67,10.94,26.22,24.66,26.22c4.69,0,10.59-1.56,14.58-5.38
							c1.39-1.22,4.69-3.65,8.86-3.65C718.75,700.45,723.26,703.75,723.26,709.13z"/>
						<path class="st2" d="M821.88,719.37c0,5.21-4.34,9.9-10.07,9.9c-2.78,0-5.38-1.21-6.94-3.12l-31.08-34.55l-10.42,9.73v16.67
							c0,6.25-5.21,11.28-11.28,11.28c-6.25,0-11.46-5.03-11.46-11.28V615.72c0-6.07,5.21-11.28,11.46-11.28
							c6.07,0,11.28,5.21,11.28,11.28v58.86l34.38-33.68c1.91-1.91,4.69-3.3,7.64-3.3c5.73,0,10.24,4.86,10.24,10.24
							c0,2.95-1.04,5.38-2.78,7.29l-25,23.27l31.08,34.03C820.49,713.99,821.88,716.42,821.88,719.37z"/>
						<path class="st2" d="M921.19,647.84c0,2.08-0.7,3.82-1.39,5.21l-44.97,101.22c-2.43,5.56-6.6,7.99-10.94,7.99
							c-5.91,0-10.07-4.69-10.07-10.24c0-2.09,0.7-3.82,1.21-5.21l9.9-22.57l-32.29-71.19c-0.52-1.39-1.21-3.13-1.21-5.21
							c0-5.56,4.51-10.24,10.42-10.24c4.34,0,8.51,2.43,10.94,7.99l23.27,53.82l23.78-53.82c2.43-5.56,6.42-7.99,10.77-7.99
							C916.67,637.6,921.19,642.28,921.19,647.84z"/>
					</g>
				</g>
			</g>
		</g>
	</g>
	<g>
		<circle class="st2" cx="540" cy="324.11" r="220.44"/>
		<g>
			<path class="st1" d="M592.28,351.75c5.45,0,9.87-4.42,9.87-9.87c0-5.45-4.42-9.87-9.87-9.87H419.33c-5.45,0-9.87,4.42-9.87,9.87
				c0,5.45,4.42,9.87,9.87,9.87H592.28z"/>
			<path class="st1" d="M622.42,375.35c0-5.45-4.42-9.87-9.87-9.87H390.89c-5.45,0-9.87,4.42-9.87,9.87s4.42,9.87,9.87,9.87h221.65
				C618,385.22,622.42,380.81,622.42,375.35z"/>
			<path class="st1" d="M419.33,398.96c-5.45,0-9.87,4.42-9.87,9.87c0,5.45,4.42,9.87,9.87,9.87H594.3c5.45,0,9.87-4.42,9.87-9.87
				c0-5.45-4.42-9.87-9.87-9.87H419.33z"/>
			<path class="st1" d="M672.07,374.3c-0.07-40.18-28.19-76.26-77.75-99.42c-0.51-0.24-0.9-0.42-1.13-0.53
				c-11.2-5.63-66-35.78-45.34-77.03c4.16-8.29,12.98-14.31,22.47-15.33c14.32-1.53,26.12,3.9,33.23,15.28
				c2.67,4.28,4.57,9.39,6.41,14.33c5.23,14.09,15.79,19.34,26.19,23.51c1.67,0.67,3.4,1.3,5.17,1.89
				c-0.79,0.41-1.62,0.81-2.49,1.19c-4.25,1.87-9.16,3.21-15.92,4.33c-3.06,0.51-6.16,0.91-9.87,1.37
				c-5.41,0.66-9.26,5.58-8.6,10.99c0.66,5.41,5.59,9.27,10.99,8.6c3.97-0.48,7.31-0.92,10.72-1.49c5.25-0.87,13.1-2.42,20.64-5.74
				c8.87-3.91,15.27-8.93,19.03-14.93c2.63-4.2,3.18-8.88,1.52-12.84c-1.56-3.71-4.87-6.36-9.07-7.28
				c-5.38-1.17-10.36-2.67-14.78-4.43c-9.14-3.67-12.78-6.05-15.02-12.06c-2.08-5.59-4.44-11.92-8.17-17.9
				c-11.16-17.88-30.13-26.79-52.08-24.45c-16.24,1.74-30.81,11.74-38.02,26.11c-10.78,21.52-8.78,43.79,5.78,64.39
				c13.7,19.38,34.91,32.24,47.13,38.51H402.67c-5.45,0-9.87,4.42-9.87,9.87s4.42,9.87,9.87,9.87h186.36
				c33.6,0,61.16,26.32,63.18,59.42c0.02,0.44,0.05,0.87,0.07,1.31c0.03,0.63,0.04,1.26,0.05,1.89c0.01,0.76,0,1.53-0.02,2.3
				c-0.04,1.6-0.12,3.19-0.28,4.76l-0.11,0.87c-0.06,0.53-0.13,1.07-0.2,1.59c-1.7,11.1-8.2,31.52-32.48,46.8
				c-8.98,4.9-19.27,7.68-30.2,7.68H402.67c-5.45,0-9.87,4.42-9.87,9.87c0,5.45,4.42,9.87,9.87,9.87h186.36
				c13.89,0,26.99-3.45,38.51-9.5c0.49-0.2,0.97-0.43,1.43-0.72c0.22-0.13,0.42-0.27,0.63-0.4c22.08-12.42,37.94-34.64,41.64-60.73
				c0.02-0.12,0.04-0.24,0.06-0.36c0.01-0.08,0.02-0.16,0.03-0.23l0.28-2.25c0.02-0.16,0.04-0.32,0.06-0.49
				c0.27-2.38,0.33-4.15,0.35-4.87c0.04-0.96,0.04-1.91,0.05-2.87c0-0.21,0.02-0.41,0.02-0.62
				C672.07,374.38,672.07,374.34,672.07,374.3z"/>
		</g>
	</g>
</g>
</svg>
