<?xml version="1.0" encoding="utf-8"?>
<!-- Generator: Adobe Illustrator 27.6.1, SVG Export Plug-In . SVG Version: 6.00 Build 0)  -->
<svg version="1.1" id="Layer_1" xmlns="http://www.w3.org/2000/svg" xmlns:xlink="http://www.w3.org/1999/xlink" x="0px" y="0px"
	 viewBox="0 0 1080 1080" style="enable-background:new 0 0 1080 1080;" xml:space="preserve">
<style type="text/css">
	.st0{fill:#005C7B;}
	.st1{fill:#FFFFFF;}
	.st2{fill:#06BAC5;}
</style>
<g>
	<g>
		<circle class="st2" cx="540" cy="540" r="461.85"/>
		<g>
			<path class="st1" d="M649.53,597.92c11.42,0,20.68-9.26,20.68-20.68c0-11.42-9.26-20.68-20.68-20.68H287.17
				c-11.42,0-20.68,9.26-20.68,20.68c0,11.42,9.26,20.68,20.68,20.68H649.53z"/>
			<path class="st1" d="M712.67,647.37c0-11.42-9.26-20.68-20.68-20.68H227.6c-11.42,0-20.68,9.26-20.68,20.68
				c0,11.42,9.26,20.68,20.68,20.68H692C703.42,668.05,712.67,658.79,712.67,647.37z"/>
			<path class="st1" d="M287.17,696.82c-11.42,0-20.68,9.26-20.68,20.68c0,11.42,9.26,20.68,20.68,20.68h366.6
				c11.42,0,20.68-9.26,20.68-20.68c0-11.42-9.26-20.68-20.68-20.68H287.17z"/>
			<path class="st1" d="M816.71,645.17c-0.14-84.19-59.07-159.78-162.9-208.29c-1.08-0.5-1.88-0.87-2.37-1.12
				c-23.46-11.79-138.29-74.96-95-161.4c8.72-17.37,27.2-29.97,47.08-32.11c30-3.2,54.73,8.16,69.62,32.01
				c5.6,8.98,9.58,19.68,13.43,30.01c10.96,29.52,33.09,40.51,54.86,49.26c3.5,1.4,7.12,2.72,10.84,3.97
				c-1.65,0.85-3.39,1.69-5.21,2.49c-8.91,3.92-19.19,6.72-33.36,9.08c-6.4,1.06-12.9,1.92-20.68,2.87
				c-11.33,1.38-19.4,11.7-18.02,23.03c1.38,11.34,11.7,19.42,23.03,18.02c8.32-1.02,15.32-1.94,22.46-3.12
				c10.99-1.83,27.44-5.06,43.24-12.02c18.58-8.18,31.99-18.7,39.86-31.28c5.51-8.81,6.66-18.61,3.18-26.9
				c-3.27-7.77-10.2-13.33-19.01-15.26c-11.27-2.46-21.71-5.59-30.96-9.27c-19.15-7.69-26.78-12.67-31.46-25.28
				c-4.36-11.7-9.29-24.97-17.11-37.5c-23.39-37.47-63.12-56.14-109.11-51.23c-34.03,3.65-64.55,24.6-79.65,54.69
				c-22.59,45.1-18.4,91.75,12.1,134.9c28.69,40.6,73.14,67.54,98.75,80.68H252.26c-11.42,0-20.68,9.26-20.68,20.68
				c0,11.42,9.26,20.68,20.68,20.68h390.44c70.4,0,128.14,55.14,132.37,124.49c0.05,0.91,0.1,1.82,0.14,2.74
				c0.05,1.31,0.09,2.63,0.1,3.95c0.01,1.6-0.01,3.21-0.05,4.83c-0.08,3.35-0.26,6.69-0.59,9.98l-0.22,1.81
				c-0.13,1.12-0.27,2.23-0.43,3.34c-3.55,23.26-17.18,66.04-68.05,98.05c-18.82,10.26-40.38,16.09-63.28,16.09H252.26
				c-11.42,0-20.68,9.26-20.68,20.68c0,11.42,9.26,20.68,20.68,20.68h390.44c29.11,0,56.55-7.22,80.68-19.91
				c1.02-0.42,2.03-0.91,3-1.51c0.45-0.28,0.88-0.57,1.32-0.85c46.27-26.03,79.49-72.57,87.23-127.23c0.04-0.25,0.08-0.51,0.12-0.76
				c0.03-0.16,0.05-0.33,0.07-0.49l0.58-4.72c0.04-0.34,0.08-0.68,0.12-1.02c0.56-4.98,0.69-8.69,0.74-10.21
				c0.08-2.01,0.09-4.01,0.11-6.01c0-0.44,0.03-0.86,0.03-1.3C816.71,645.33,816.71,645.25,816.71,645.17z"/>
		</g>
	</g>
</g>
</svg>
